<?xml version="1.0" standalone="no"?>
<!DOCTYPE svg PUBLIC "-//W3C//DTD SVG 20010904//EN"
 "http://www.w3.org/TR/2001/REC-SVG-20010904/DTD/svg10.dtd">
<svg version="1.0" xmlns="http://www.w3.org/2000/svg"
 width="198.000000pt" height="198.000000pt" viewBox="0 0 198.000000 198.000000"
 preserveAspectRatio="xMidYMid meet">

<g transform="translate(0.000000,198.000000) scale(0.100000,-0.100000)"
fill="#000000" stroke="none">
<path d="M0 990 l0 -990 990 0 990 0 0 990 0 990 -990 0 -990 0 0 -990z m1155
574 c83 -47 158 -93 168 -102 15 -13 17 -37 17 -212 0 -175 -2 -199 -17 -213
-33 -28 -315 -187 -333 -187 -20 0 -330 176 -342 194 -4 6 -8 99 -8 207 0 174
2 198 18 211 29 26 316 188 332 188 9 0 83 -39 165 -86z m-284 -1217 c-10 -9
-11 -8 -5 6 3 10 9 15 12 12 3 -3 0 -11 -7 -18z m114 -6 c-6 -5 -25 10 -25 20
0 5 6 4 14 -3 8 -7 12 -15 11 -17z m146 14 c11 6 11 5 2 -5 -12 -14 -33 -6
-33 13 0 8 3 7 9 -2 5 -8 14 -10 22 -6z m-186 -5 c-3 -5 -14 -10 -23 -9 -14 0
-13 2 3 9 27 11 27 11 20 0z"/>
<path d="M977 1262 c-42 -122 -43 -128 -23 -135 11 -5 24 22 52 106 20 62 39
118 42 125 2 7 -4 12 -15 12 -16 0 -27 -20 -56 -108z"/>
<path d="M835 1289 c-21 -17 -41 -31 -42 -33 -2 -2 17 -20 42 -41 38 -31 48
-35 61 -24 13 11 12 15 -13 36 l-28 23 24 20 c13 12 21 26 17 35 -7 20 -15 18
-61 -16z"/>
<path d="M1084 1308 c-4 -6 4 -21 19 -34 l27 -23 -26 -20 c-16 -13 -24 -27
-20 -36 8 -22 16 -19 64 23 l44 37 -45 33 c-51 36 -53 37 -63 20z"/>
</g>
</svg>
